<?xml version="1.0" encoding="utf-8"?>
<!-- Generator: Adobe Illustrator 23.0.1, SVG Export Plug-In . SVG Version: 6.00 Build 0)  -->
<svg version="1.1" id="レイヤー_1" xmlns="http://www.w3.org/2000/svg" xmlns:xlink="http://www.w3.org/1999/xlink" x="0px"
	 y="0px" viewBox="0 0 48 48" style="enable-background:new 0 0 48 48;" xml:space="preserve">
<style type="text/css">
	.st0{fill:#F9F9F9;}
</style>
<title>アートボード 1</title>
<g id="レイヤー_1-2">
	<path class="st0" d="M40,13.8h-6.3L30,11H18l-3.7,2.8H8c-2.2,0-4,1.3-4,2.8v16.8c0,1.5,1.8,2.8,4,2.8h32c2.2,0,4-1.2,4-2.8V16.6
		C44,15.1,42.2,13.8,40,13.8z M24,31.8c-4.5,0-8.2-3.7-8.2-8.2h-3.1l4.1-4.1l4.1,4.1h-3.1c0,3.4,2.8,6.2,6.2,6.1
		c1,0,1.9-0.2,2.8-0.7l1.5,1.5C27,31.4,25.5,31.8,24,31.8L24,31.8z M31.2,27.7l-4.1-4.1h3.1c0-3.4-2.8-6.2-6.2-6.1
		c-1,0-1.9,0.2-2.8,0.7l-1.5-1.5c3.8-2.4,8.9-1.3,11.3,2.6c0.8,1.3,1.3,2.8,1.3,4.4h3.1L31.2,27.7z"/>
</g>
</svg>
