<?xml version="1.0" encoding="utf-8"?>
<!-- Generator: Adobe Illustrator 23.0.1, SVG Export Plug-In . SVG Version: 6.00 Build 0)  -->
<svg version="1.1" id="レイヤー_1" xmlns="http://www.w3.org/2000/svg" xmlns:xlink="http://www.w3.org/1999/xlink" x="0px"
	 y="0px" viewBox="0 0 48 48" style="enable-background:new 0 0 48 48;" xml:space="preserve">
<style type="text/css">
	.st0{fill:#F9F9F9;}
	.st1{fill:none;}
</style>
<title>camera</title>
<circle class="st0" cx="24" cy="26" r="8"/>
<path class="st0" d="M18,6l-3.7,4H8c-2.2,0-4,1.8-4,4v24c0,2.2,1.8,4,4,4h32c2.2,0,4-1.8,4-4V14c0-2.2-1.8-4-4-4h-6.3L30,6H18z
	 M24,36c-5.5,0-10-4.5-10-10s4.5-10,10-10s10,4.5,10,10S29.5,36,24,36z"/>
<path class="st1" d="M0,0h48v48H0V0z"/>
</svg>
