<svg id="レイヤー_1" data-name="レイヤー 1" xmlns="http://www.w3.org/2000/svg" viewBox="0 0 48 48"><title>アートボード 1</title><g id="レイヤー_1-2" data-name="レイヤー 1-2"><path d="M40,15.88H33.66L30,13.08H18l-3.66,2.8H8c-2.21,0-4,1.26-4,2.8V35.5c0,1.55,1.79,2.8,4,2.8H40c2.21,0,4-1.25,4-2.8V18.68C44,17.14,42.21,15.88,40,15.88Zm-16,18a8.22,8.22,0,0,1-8.21-8.21H12.71l4.1-4.11,4.11,4.11H17.84a6.17,6.17,0,0,0,9,5.45l1.5,1.5A8.26,8.26,0,0,1,24,33.91Zm7.19-4.11-4.11-4.11h3.08a6.17,6.17,0,0,0-9-5.45l-1.5-1.49a8.21,8.21,0,0,1,12.59,6.94h3.08Z"/></g></svg>