<svg id="レイヤー_1" data-name="レイヤー 1" xmlns="http://www.w3.org/2000/svg" viewBox="0 0 48 48"><defs><style>.cls-1,.cls-2,.cls-3{fill:none;}.cls-2,.cls-3{stroke:#138fb8;stroke-miterlimit:10;}.cls-2{stroke-width:2px;}</style></defs><title>collections_line_sub</title><path class="cls-1" d="M-1,1H47V49H-1Z"/><path class="cls-2" d="M6,10V38a4,4,0,0,0,4,4H38"/><rect class="cls-2" x="11" y="5" width="32" height="32" rx="4"/><path class="cls-3" d="M31.72,18.16a3.28,3.28,0,1,1-3.27,3.29h0a3.26,3.26,0,0,1,3.24-3.28h0Z"/><path class="cls-3" d="M23,18.16a3.28,3.28,0,1,1-3.27,3.29h0A3.26,3.26,0,0,1,23,18.16Z"/><path class="cls-3" d="M30.63,33.44H15.36V30.71c0-2.54,5.09-3.82,7.63-3.82s7.64,1.28,7.64,3.82Z"/><path class="cls-3" d="M39.36,33.44H32.81V30.71A4.61,4.61,0,0,0,30.67,27a8.39,8.39,0,0,1,1-.06c2.55,0,7.64,1.28,7.64,3.82Z"/></svg>