<svg id="レイヤー_1" data-name="レイヤー 1" xmlns="http://www.w3.org/2000/svg" viewBox="0 0 48 48"><defs><style>.cls-1{fill:none;}.cls-2{fill:#f9f9f9;}</style></defs><title>collections</title><path class="cls-1" d="M0,0H48V48H0Z"/><path class="cls-2" d="M4,12V40a4,4,0,0,0,4,4H36V40H8V12Z"/><path class="cls-2" d="M40,4H16a4,4,0,0,0-4,4V32a4,4,0,0,0,4,4H40a4,4,0,0,0,4-4V8A4,4,0,0,0,40,4ZM32.72,17.16a3.28,3.28,0,1,1-3.27,3.28A3.26,3.26,0,0,1,32.72,17.16Zm-8.73,0a3.28,3.28,0,1,1-3.27,3.28A3.27,3.27,0,0,1,24,17.16Zm7.64,15.28H16.36V29.71c0-2.54,5.09-3.82,7.63-3.82s7.64,1.28,7.64,3.82Zm8.73,0H33.81V29.71A4.59,4.59,0,0,0,31.67,26a10.24,10.24,0,0,1,1-.06c2.55,0,7.64,1.28,7.64,3.82Z"/></svg>