<?xml version="1.0" encoding="utf-8"?>
<!-- Generator: Adobe Illustrator 23.0.1, SVG Export Plug-In . SVG Version: 6.00 Build 0)  -->
<svg version="1.1" id="レイヤー_1" xmlns="http://www.w3.org/2000/svg" xmlns:xlink="http://www.w3.org/1999/xlink" x="0px"
	 y="0px" viewBox="0 0 48 48" style="enable-background:new 0 0 48 48;" xml:space="preserve">
<style type="text/css">
	.st0{fill:none;}
	.st1{opacity:0.55;fill:#F9F9F9;}
</style>
<title>collections_sub</title>
<path class="st0" d="M0,0h48v48H0V0z"/>
<path class="st1" d="M4,12v28c0,2.2,1.8,4,4,4h28v-4H8V12H4z"/>
<path class="st1" d="M40,4H16c-2.2,0-4,1.8-4,4v24c0,2.2,1.8,4,4,4h24c2.2,0,4-1.8,4-4V8C44,5.8,42.2,4,40,4z M32.7,17.2
	c1.8,0,3.3,1.5,3.3,3.3c0,1.8-1.5,3.3-3.3,3.3c-1.8,0-3.3-1.5-3.3-3.3l0,0C29.4,18.6,30.9,17.2,32.7,17.2
	C32.7,17.2,32.7,17.2,32.7,17.2L32.7,17.2z M24,17.2c1.8,0,3.3,1.5,3.3,3.3s-1.5,3.3-3.3,3.3c-1.8,0-3.3-1.5-3.3-3.3l0,0
	C20.7,18.6,22.1,17.2,24,17.2C24,17.2,24,17.2,24,17.2L24,17.2L24,17.2z M31.6,32.4H16.4v-2.7c0-2.5,5.1-3.8,7.6-3.8
	s7.6,1.3,7.6,3.8V32.4z M40.4,32.4h-6.5v-2.7c-0.1-1.5-0.9-2.9-2.1-3.7c0.3,0,0.7-0.1,1-0.1c2.5,0,7.6,1.3,7.6,3.8L40.4,32.4z"/>
</svg>
