<?xml version="1.0" encoding="utf-8"?>
<!-- Generator: Adobe Illustrator 23.0.1, SVG Export Plug-In . SVG Version: 6.00 Build 0)  -->
<svg version="1.1" id="レイヤー_1" xmlns="http://www.w3.org/2000/svg" xmlns:xlink="http://www.w3.org/1999/xlink" x="0px"
	 y="0px" viewBox="0 0 48 48" style="enable-background:new 0 0 48 48;" xml:space="preserve">
<style type="text/css">
	.st0{fill:#F9F9F9;}
</style>
<title>アートボード 1</title>
<path class="st0" d="M38.3,17H24l-3.6-3.6H9.7c-2,0-3.6,1.6-3.6,3.6l0,21.4c0,2,1.6,3.6,3.6,3.6h28.6c2,0,3.6-1.6,3.6-3.6V20.6
	C41.8,18.6,40.2,17,38.3,17z M24,18.8c3,0,5.4,2.4,5.4,5.4c0,3-2.4,5.4-5.4,5.4s-5.4-2.4-5.4-5.4C18.6,21.2,21,18.8,24,18.8z
	 M34.7,40.2H13.3v-1.8c0-3.6,7.1-5.5,10.7-5.5s10.7,2,10.7,5.5V40.2z"/>
<path class="st0" d="M24,1.4L14.6,9l2.2,1.8L24,5l7.2,5.8L33.4,9L24,1.4z"/>
</svg>
