<?xml version="1.0" encoding="utf-8"?>
<!-- Generator: Adobe Illustrator 23.0.1, SVG Export Plug-In . SVG Version: 6.00 Build 0)  -->
<svg version="1.1" id="レイヤー_1" xmlns="http://www.w3.org/2000/svg" xmlns:xlink="http://www.w3.org/1999/xlink" x="0px"
	 y="0px" viewBox="0 0 48 48" style="enable-background:new 0 0 48 48;" xml:space="preserve">
<style type="text/css">
	.st0{fill:#138FB8;}
	.st1{fill:none;stroke:#138FB8;stroke-miterlimit:10;}
</style>
<title>mode_line_sub</title>
<path class="st0" d="M4.1,12c0,0.3,0.3,0.6,0.6,0.6c0.3,0,0.6-0.3,0.6-0.6V4.6C5.3,4.3,5,4,4.7,4C4.4,4,4.1,4.2,4.1,4.6c0,0,0,0,0,0
	V12z"/>
<path class="st0" d="M4.1,4.6c0,0.3,0.3,0.6,0.6,0.6H12c0.3,0,0.6-0.3,0.6-0.6C12.6,4.3,12.4,4,12,4c0,0,0,0,0,0H4.6
	C4.3,4,4.1,4.2,4.1,4.5C4.1,4.5,4.1,4.6,4.1,4.6z"/>
<path class="st0" d="M35.4,4.6c0,0.3,0.3,0.6,0.6,0.6h7.4c0.3,0,0.6-0.3,0.6-0.6C44,4.3,43.7,4,43.4,4H36C35.7,4,35.4,4.3,35.4,4.6z
	"/>
<path class="st0" d="M42.8,12c0.1,0.3,0.4,0.6,0.7,0.5c0.3,0,0.5-0.2,0.5-0.5V4.6c-0.1-0.3-0.4-0.6-0.7-0.5c-0.3,0-0.5,0.2-0.5,0.5
	V12z"/>
<path class="st0" d="M6.2,6.6c0,0.3,0.2,0.5,0.4,0.5c0,0,0,0,0.1,0h5.2c0.3,0,0.4-0.3,0.4-0.5s-0.2-0.3-0.4-0.4H6.7
	C6.5,6.2,6.3,6.4,6.2,6.6z"/>
<path class="st0" d="M6.2,11.8c0,0.3,0.3,0.4,0.5,0.4S7,12,7.1,11.8V6.6c0-0.3-0.3-0.4-0.5-0.4S6.3,6.4,6.2,6.6V11.8z"/>
<path class="st0" d="M40.9,11.8c0,0.3,0.2,0.5,0.5,0.5s0.5-0.2,0.5-0.5l0,0V6.6c0-0.3-0.2-0.5-0.5-0.5s-0.5,0.2-0.5,0.5l0,0V11.8z"
	/>
<path class="st0" d="M35.7,6.6c0,0.2,0.2,0.5,0.4,0.5h5.2c0.3,0,0.4-0.3,0.4-0.5s-0.2-0.3-0.4-0.4h-5.2C35.9,6.1,35.7,6.3,35.7,6.6z
	"/>
<path class="st0" d="M42.7,43.4c0.1,0.3,0.4,0.6,0.7,0.5c0.3,0,0.5-0.2,0.5-0.5V36c-0.1-0.3-0.4-0.6-0.7-0.5c-0.3,0-0.5,0.2-0.5,0.5
	V43.4z"/>
<path class="st0" d="M35.4,43.4c0,0.3,0.3,0.6,0.6,0.6h7.4c0.3,0,0.6-0.3,0.6-0.6c0-0.3-0.3-0.6-0.6-0.6H36
	C35.7,42.8,35.4,43,35.4,43.4C35.4,43.4,35.4,43.4,35.4,43.4z"/>
<path class="st0" d="M4.1,43.4c0,0.3,0.3,0.6,0.6,0.6H12c0.3,0,0.6-0.3,0.6-0.6c0-0.3-0.3-0.6-0.6-0.6H4.6c-0.3,0-0.5,0.2-0.5,0.5
	C4.1,43.3,4.1,43.4,4.1,43.4z"/>
<path class="st0" d="M4.1,43.4c0,0.3,0.3,0.6,0.6,0.6c0.3,0,0.6-0.3,0.6-0.6l0,0V36c0-0.3-0.3-0.6-0.6-0.6c-0.3,0-0.6,0.3-0.6,0.6
	V43.4z"/>
<path class="st0" d="M35.7,41.4c0,0.3,0.2,0.5,0.4,0.5c0,0,0,0,0.1,0h5.2c0.3,0,0.5-0.1,0.5-0.4S41.8,41,41.5,41h-5.4
	C35.9,40.9,35.7,41.1,35.7,41.4z"/>
<path class="st0" d="M40.9,41.4c0,0.3,0.3,0.4,0.5,0.4s0.3-0.2,0.4-0.4v-5.2c0-0.3-0.3-0.4-0.5-0.4S41,36,40.9,36.2V41.4z"/>
<path class="st0" d="M6.2,41.4c0,0.3,0.2,0.5,0.5,0.5s0.5-0.2,0.5-0.5v-5.2c0-0.3-0.2-0.5-0.5-0.5s-0.5,0.2-0.5,0.5V41.4z"/>
<path class="st0" d="M6.2,41.4c0,0.2,0.2,0.5,0.4,0.5h5.2c0.3,0,0.5-0.1,0.5-0.4S12.2,41,11.9,41H6.7C6.4,40.9,6.2,41.1,6.2,41.4z"
	/>
<path class="st1" d="M24.1,29.2c4.4,0,8-3.6,8-8s-3.6-8-8-8s-8,3.6-8,8l0,0C16.1,25.6,19.7,29.2,24.1,29.2z"/>
<path class="st1" d="M39.9,40.4c-1-4.8-10.9-7.2-15.8-7.2c-5.1,0-15,2.4-16,7.2"/>
</svg>
