<svg id="レイヤー_1" data-name="レイヤー 1" xmlns="http://www.w3.org/2000/svg" viewBox="0 0 48 48"><defs><style>.cls-1,.cls-2{fill:none;}.cls-2{stroke:#138fb8;stroke-miterlimit:10;stroke-width:2px;}</style></defs><title>settings_line_sub</title><path class="cls-1" d="M0,0H48V48H0Z"/><path class="cls-2" d="M38.86,26A14.83,14.83,0,0,0,39,24a16,16,0,0,0-.14-1.95l4.23-3.31a1,1,0,0,0,.24-1.28l-4-6.93a1,1,0,0,0-1.22-.43l-5,2a15.36,15.36,0,0,0-3.38-2L29,4.84A1,1,0,0,0,28,4H20a1,1,0,0,0-1,.84l-.75,5.3a14.76,14.76,0,0,0-3.38,2l-5-2a1,1,0,0,0-1.22.43l-4,6.93a1,1,0,0,0,.24,1.28l4.22,3.31A15.18,15.18,0,0,0,9,24a14.83,14.83,0,0,0,.14,2L4.92,29.26a1,1,0,0,0-.24,1.28l4,6.93a1,1,0,0,0,1.22.43l5-2a15.36,15.36,0,0,0,3.38,2L19,43.2a1,1,0,0,0,1,.8h8a1,1,0,0,0,1-.84l.75-5.3a14.76,14.76,0,0,0,3.38-2l5,2a1,1,0,0,0,1.22-.43l4-6.93a1,1,0,0,0-.24-1.28ZM24,31a7,7,0,1,1,7-7A7,7,0,0,1,24,31Z"/></svg>