<svg id="レイヤー_1" data-name="レイヤー 1" xmlns="http://www.w3.org/2000/svg" viewBox="0 0 48 48"><defs><style>.cls-1{fill:none;}.cls-2{fill:#f9f9f9;}</style></defs><title>timer_10</title><path class="cls-1" d="M0,0H48V48H0ZM0,0H48V48H0Z"/><path class="cls-2" d="M0,15.43V18.8l6-2V36h4V12H9.49Zm47.57,13.3a4.32,4.32,0,0,0-1.26-1.48,7.68,7.68,0,0,0-2-1.06,20,20,0,0,0-2.7-.75A14.85,14.85,0,0,1,39.86,25a4.57,4.57,0,0,1-1.1-.5,1.63,1.63,0,0,1-.57-.61A1.71,1.71,0,0,1,38,23.1a2,2,0,0,1,.18-.83,2,2,0,0,1,.54-.69,2.7,2.7,0,0,1,.91-.48,4.08,4.08,0,0,1,1.28-.18,3.58,3.58,0,0,1,1.32.22,2.6,2.6,0,0,1,1,.59,2.49,2.49,0,0,1,.58.84,2.54,2.54,0,0,1,.19,1h3.9a5.14,5.14,0,0,0-.47-2.18A5,5,0,0,0,46,19.6a6.54,6.54,0,0,0-2.19-1.17A9.19,9.19,0,0,0,40.93,18a8.59,8.59,0,0,0-2.78.42A6.73,6.73,0,0,0,36,19.57a5,5,0,0,0-1.34,1.68,4.56,4.56,0,0,0-.47,2,3.91,3.91,0,0,0,.46,1.93A4.4,4.4,0,0,0,36,26.64a8,8,0,0,0,2,1.05,16.3,16.3,0,0,0,2.54.72,13.52,13.52,0,0,1,1.9.51,4.19,4.19,0,0,1,1.13.59,1.57,1.57,0,0,1,.54.67,2.21,2.21,0,0,1,.14.78,1.82,1.82,0,0,1-.8,1.53,4,4,0,0,1-2.34.59,5.4,5.4,0,0,1-1.28-.15,3.24,3.24,0,0,1-1.12-.49,2.77,2.77,0,0,1-.82-.88,3,3,0,0,1-.37-1.35H33.66a5.1,5.1,0,0,0,.47,2.11,5.37,5.37,0,0,0,1.4,1.85,7,7,0,0,0,2.3,1.32A9,9,0,0,0,41,36a10.42,10.42,0,0,0,2.89-.38,7,7,0,0,0,2.22-1.08,4.87,4.87,0,0,0,1.42-1.66,4.82,4.82,0,0,0,.06-4.15ZM27.64,14.09a5.87,5.87,0,0,0-2.45-1.75A9,9,0,0,0,22,11.8a9,9,0,0,0-3.18.54,5.75,5.75,0,0,0-2.45,1.75,8.48,8.48,0,0,0-1.57,3.17A17.8,17.8,0,0,0,14.24,22v3.83a17.84,17.84,0,0,0,.56,4.79,8.8,8.8,0,0,0,1.59,3.2,6.07,6.07,0,0,0,2.46,1.79A8.77,8.77,0,0,0,22,36.2a9,9,0,0,0,3.19-.55,5.85,5.85,0,0,0,2.44-1.79,8.78,8.78,0,0,0,1.57-3.2,17.88,17.88,0,0,0,.55-4.79V22a18.21,18.21,0,0,0-.55-4.78A8.65,8.65,0,0,0,27.64,14.09ZM25.81,26.45a16.53,16.53,0,0,1-.24,3.05,6.06,6.06,0,0,1-.73,2,3.06,3.06,0,0,1-1.18,1.14A3.53,3.53,0,0,1,22,33a3.59,3.59,0,0,1-1.63-.36,3.06,3.06,0,0,1-1.21-1.14,6,6,0,0,1-.75-2,15.55,15.55,0,0,1-.26-3.05v-5a15.31,15.31,0,0,1,.25-3,6,6,0,0,1,.74-2,2.89,2.89,0,0,1,1.2-1.09,4.14,4.14,0,0,1,3.24,0,3,3,0,0,1,1.2,1.09,5.83,5.83,0,0,1,.74,2,15.38,15.38,0,0,1,.25,3v5Z"/></svg>