<svg id="レイヤー_1" data-name="レイヤー 1" xmlns="http://www.w3.org/2000/svg" viewBox="0 0 48 48"><defs><style>.cls-1{fill:none;}.cls-2{fill:#f9f9f9;}</style></defs><title>timer_3</title><path class="cls-1" d="M0,0H48V48H0ZM0,0H48V48H0Z"/><path class="cls-2" d="M23.22,26A5.61,5.61,0,0,0,22,24.64a6.43,6.43,0,0,0-1.85-.95,6.58,6.58,0,0,0,1.6-1,6.39,6.39,0,0,0,1.14-1.27A5.76,5.76,0,0,0,23.57,20a4.93,4.93,0,0,0,.23-1.45,7.43,7.43,0,0,0-.55-2.93,5.71,5.71,0,0,0-1.56-2.11,6.86,6.86,0,0,0-2.41-1.28,10.47,10.47,0,0,0-3.1-.43,9,9,0,0,0-3,.49,7.4,7.4,0,0,0-2.4,1.36,6.31,6.31,0,0,0-1.57,2.06,5.91,5.91,0,0,0-.56,2.59h4a3.24,3.24,0,0,1,.28-1.38,3,3,0,0,1,.77-1,3.5,3.5,0,0,1,1.16-.67A4.28,4.28,0,0,1,16.23,15a3.58,3.58,0,0,1,2.72.94,3.69,3.69,0,0,1,.89,2.63A4.33,4.33,0,0,1,19.6,20a2.77,2.77,0,0,1-.75,1.14,3.56,3.56,0,0,1-1.26.74,5.25,5.25,0,0,1-1.78.27H13.46v3.13h2.35a6.81,6.81,0,0,1,1.82.23,3.62,3.62,0,0,1,1.38.71,3.22,3.22,0,0,1,.88,1.22,4.42,4.42,0,0,1,.31,1.75,3.66,3.66,0,0,1-1.06,2.84,4.12,4.12,0,0,1-2.9,1,4.75,4.75,0,0,1-1.6-.25,3.43,3.43,0,0,1-1.22-.72A3.06,3.06,0,0,1,12.64,31a3.52,3.52,0,0,1-.28-1.44h-4A6.23,6.23,0,0,0,9,32.41a6,6,0,0,0,1.71,2.1,7.5,7.5,0,0,0,2.49,1.26,10.33,10.33,0,0,0,3,.42,10.73,10.73,0,0,0,3.16-.46,7.48,7.48,0,0,0,2.53-1.35,6.15,6.15,0,0,0,1.67-2.19,7,7,0,0,0,.6-3,6.47,6.47,0,0,0-.22-1.71A5.46,5.46,0,0,0,23.22,26Zm18.53,2.78a4.32,4.32,0,0,0-1.26-1.48,7.68,7.68,0,0,0-2-1.06,20,20,0,0,0-2.7-.75A14.85,14.85,0,0,1,34,25a4.57,4.57,0,0,1-1.1-.5,1.63,1.63,0,0,1-.57-.61,1.71,1.71,0,0,1-.16-.77,2,2,0,0,1,.18-.83,2,2,0,0,1,.54-.69,2.7,2.7,0,0,1,.91-.48,4.08,4.08,0,0,1,1.28-.18,3.58,3.58,0,0,1,1.32.22,2.6,2.6,0,0,1,1,.59,2.49,2.49,0,0,1,.58.84,2.54,2.54,0,0,1,.19,1h3.9a5,5,0,0,0-1.84-3.94A6.54,6.54,0,0,0,38,18.43,9.21,9.21,0,0,0,35.1,18a8.59,8.59,0,0,0-2.78.42,6.73,6.73,0,0,0-2.12,1.15,5,5,0,0,0-1.34,1.68,4.56,4.56,0,0,0-.47,2,3.91,3.91,0,0,0,.46,1.93,4.4,4.4,0,0,0,1.28,1.45,8,8,0,0,0,2,1.05,16.3,16.3,0,0,0,2.54.72,13.52,13.52,0,0,1,1.9.51,4.19,4.19,0,0,1,1.13.59,1.57,1.57,0,0,1,.54.67,2.21,2.21,0,0,1,.14.78,1.82,1.82,0,0,1-.8,1.53,4,4,0,0,1-2.34.59,5.4,5.4,0,0,1-1.28-.15,3.24,3.24,0,0,1-1.12-.49,2.77,2.77,0,0,1-.82-.88,3,3,0,0,1-.37-1.35H27.83a5.1,5.1,0,0,0,.47,2.11,5.37,5.37,0,0,0,1.4,1.85A7,7,0,0,0,32,35.49a9,9,0,0,0,3.15.51A10.42,10.42,0,0,0,38,35.62a7,7,0,0,0,2.22-1.08,4.87,4.87,0,0,0,1.42-1.66,4.87,4.87,0,0,0,.07-4.15Z"/></svg>