<svg id="レイヤー_1" data-name="レイヤー 1" xmlns="http://www.w3.org/2000/svg" viewBox="0 0 48 48"><defs><style>.cls-1{fill:none;}.cls-2{fill:#f9f9f9;}</style></defs><title>timer_off</title><path class="cls-1" d="M0,0H48V48H0ZM0,0H48V48H0ZM0,0H48V48H0ZM0,0H48V48H0ZM0,0H48V48H0Z"/><path class="cls-2" d="M38.07,9.1,35.22,12A17.94,17.94,0,0,0,14.1,11L17,13.88A14,14,0,0,1,36.12,33L39,35.9a18,18,0,0,0-1-21.13l2.85-2.85ZM30,2H18V6H30ZM22,18.87l4,4V16H22ZM6,8,3.49,10.54,9,16.05A18,18,0,0,0,33.94,41l5,5,2.54-2.55L26.08,28ZM24,40A14,14,0,0,1,11.91,19L31,38.09A13.9,13.9,0,0,1,24,40Z"/></svg>